<?xml version="1.0" standalone="no"?>
<!DOCTYPE svg PUBLIC "-//W3C//DTD SVG 20010904//EN"
 "http://www.w3.org/TR/2001/REC-SVG-20010904/DTD/svg10.dtd">
<svg version="1.0" xmlns="http://www.w3.org/2000/svg"
 width="460.000000pt" height="460.000000pt" viewBox="0 0 460.000000 460.000000"
 preserveAspectRatio="xMidYMid meet">
<metadata>
Created by potrace 1.14, written by Peter Selinger 2001-2017
</metadata>
<g transform="translate(0.000000,460.000000) scale(0.100000,-0.100000)"
fill="#000000" stroke="none">
<path d="M1474 3164 c-74 -19 -115 -39 -174 -83 -139 -104 -213 -254 -209
-425 3 -142 52 -257 152 -355 105 -106 229 -153 381 -147 139 6 250 58 350
167 188 203 180 515 -18 710 -128 126 -312 177 -482 133z m270 -145 c123 -48
220 -180 232 -316 15 -169 -68 -312 -226 -387 -58 -27 -75 -30 -150 -30 -167
2 -290 87 -357 247 -30 71 -27 208 5 281 67 150 213 242 367 232 39 -2 97 -15
129 -27z"/>
<path d="M4036 3163 c-121 -27 -233 -106 -305 -214 -141 -211 -101 -510 90
-670 114 -96 190 -124 334 -123 134 1 221 34 338 127 l37 31 -28 25 c-75 67
-65 64 -103 35 -19 -15 -63 -40 -99 -57 -57 -27 -76 -31 -150 -31 -75 1 -93 4
-152 33 -98 46 -165 121 -200 219 -39 111 -22 244 43 338 125 183 356 221 538
91 60 -43 44 -46 125 25 l28 26 -54 40 c-141 107 -285 141 -442 105z"/>
<path d="M2 2666 l3 -501 240 0 240 0 1 63 c1 57 -1 62 -20 63 -12 0 -92 0
-178 1 l-158 0 0 438 0 437 -65 0 -65 0 2 -501z"/>
<path d="M710 2665 l0 -501 65 -2 65 -2 0 504 0 505 -65 -2 -65 -1 0 -501z"/>
<path d="M2349 3162 c-1 -4 -2 -229 -3 -500 -1 -485 -1 -493 19 -497 11 -2 40
-3 65 -2 l45 2 0 358 c0 196 1 357 1 357 2 0 74 -122 106 -180 14 -25 49 -85
78 -135 29 -49 62 -108 75 -130 88 -155 133 -233 145 -252 12 -18 23 -21 69
-21 l56 1 0 501 0 501 -65 0 -65 0 0 -352 c0 -336 -1 -352 -17 -330 -10 12
-24 36 -33 52 -8 17 -92 165 -187 330 l-173 300 -58 2 c-31 1 -58 -2 -58 -5z"/>
<path d="M3270 3147 c-1 -30 -1 -937 -1 -964 1 -20 6 -22 64 -21 l64 1 -1 501
-1 501 -62 2 c-59 2 -63 0 -63 -20z"/>
<path d="M2971 1676 c-1 -134 1 -156 14 -156 13 0 15 21 13 152 -2 106 -7 153
-15 155 -9 3 -12 -36 -12 -151z"/>
<path d="M3650 1675 c0 -121 3 -155 13 -155 10 0 13 32 11 148 -2 172 -1 162
-14 162 -6 0 -10 -58 -10 -155z"/>
<path d="M3210 1799 c-16 -10 -31 -24 -31 -31 -1 -7 -3 -23 -4 -35 -4 -35 19
-58 80 -83 41 -16 57 -29 61 -47 13 -51 -54 -82 -104 -47 -25 17 -44 11 -36
-11 8 -20 76 -39 108 -31 38 9 66 45 66 82 0 40 -26 67 -80 83 -50 15 -73 44
-58 76 14 31 52 39 89 21 32 -16 51 -3 28 20 -23 22 -85 23 -119 3z"/>
<path d="M2090 1663 l0 -148 52 2 c29 1 65 2 81 2 16 1 27 7 27 14 0 10 -16
14 -62 13 l-63 -1 -3 133 c-2 108 -5 132 -17 132 -13 0 -15 -24 -15 -147z"/>
<path d="M4100 1786 c0 -8 4 -17 8 -20 13 -8 35 11 28 23 -10 16 -36 14 -36
-3z"/>
<path d="M3980 1735 c0 -18 -5 -25 -20 -25 -11 0 -20 -4 -20 -10 0 -10 12 -13
28 -7 4 1 9 -35 12 -80 3 -45 8 -85 11 -88 13 -12 53 -14 67 -2 13 10 11 13
-14 17 -29 5 -29 6 -32 77 l-3 72 26 -5 c18 -3 25 0 25 11 0 9 -9 15 -25 15
-20 0 -25 5 -25 25 0 16 -6 25 -15 25 -9 0 -15 -9 -15 -25z"/>
<path d="M2332 1705 c-61 -26 -77 -115 -29 -163 32 -32 95 -36 126 -8 26 24
16 41 -12 21 -48 -33 -120 -4 -104 43 1 4 25 8 52 8 106 3 98 1 91 36 -8 40
-23 56 -62 67 -21 6 -41 4 -62 -4z m76 -31 c42 -29 28 -44 -43 -44 -62 0 -65
1 -55 20 21 40 62 50 98 24z"/>
<path d="M2563 1709 c-33 -12 -63 -58 -63 -96 0 -72 89 -118 148 -77 21 15 22
14 22 -14 0 -17 -8 -39 -17 -51 -23 -27 -85 -31 -111 -7 -16 14 -21 14 -31 2
-9 -11 -5 -17 23 -30 42 -20 79 -20 116 -1 38 20 43 40 45 168 1 80 -1 107
-11 107 -7 0 -14 -6 -17 -12 -3 -10 -7 -10 -18 -2 -20 16 -62 22 -86 13z m81
-40 c35 -27 35 -72 1 -104 -47 -42 -115 -12 -115 51 0 35 37 74 70 74 10 0 29
-9 44 -21z"/>
<path d="M2793 1706 c-18 -5 -33 -15 -33 -24 0 -10 5 -12 18 -7 51 23 84 15
96 -20 5 -18 1 -20 -34 -21 -78 -2 -119 -56 -75 -100 19 -19 31 -23 57 -19 18
3 38 11 45 17 9 7 13 7 13 -1 0 -6 6 -11 14 -11 17 0 15 134 -2 166 -13 25
-54 34 -99 20z m84 -114 c1 -46 -75 -72 -96 -33 -12 22 2 38 46 50 35 10 50 5
50 -17z"/>
<path d="M3453 1705 c-89 -37 -74 -172 21 -189 36 -7 91 16 106 44 47 88 -36
183 -127 145z m77 -25 c28 -15 40 -61 25 -97 -21 -51 -81 -59 -114 -17 -28 35
-26 69 4 99 25 26 54 31 85 15z"/>
<path d="M4268 1712 c-93 -12 -107 -160 -17 -191 64 -22 125 15 136 82 10 64
-49 118 -119 109z m67 -47 c47 -46 19 -125 -45 -125 -41 0 -70 32 -70 75 0 69
68 98 115 50z"/>
<path d="M4515 1712 c-11 -2 -28 -11 -38 -20 -15 -14 -18 -14 -15 -2 2 8 -4
15 -12 15 -11 0 -14 -17 -13 -85 2 -108 1 -102 15 -98 8 3 13 26 14 66 0 68
20 102 59 102 35 0 46 -23 48 -99 1 -51 5 -71 14 -71 9 0 13 20 13 73 0 97
-25 131 -85 119z"/>
<path d="M3740 1631 c0 -74 2 -81 26 -100 32 -25 40 -26 78 -6 33 18 39 19 31
5 -3 -5 2 -10 12 -10 16 0 18 10 18 95 0 79 -3 95 -15 93 -11 -2 -15 -19 -16
-63 -2 -75 -1 -70 -20 -89 -20 -20 -58 -21 -74 -1 -7 9 -13 45 -13 85 -1 50
-5 70 -14 70 -10 0 -13 -21 -13 -79z"/>
<path d="M4109 1703 c-1 -5 -2 -47 -3 -95 -1 -65 2 -88 11 -88 13 0 15 17 15
120 0 64 -1 70 -12 70 -5 0 -11 -3 -11 -7z"/>
<path d="M0 1658 l0 -28 861 0 860 0 -3 28 -3 27 -857 0 -858 0 0 -27z"/>
</g>
</svg>
